<svg width="14" height="26" viewBox="0 0 14 26" fill="none" xmlns="http://www.w3.org/2000/svg">
<path d="M9.39028 24.7132V25.6265L6.44631 24.7132H0V2.779H1.19592V23.5173H2.58831L1.67506 23.2339V2.779L9.39028 0.864759V23.5173H12.8033V2.779H14V24.7132H9.39028ZM7.58243 10.6938C7.19414 10.6938 6.87963 11.0759 6.87963 11.5465C6.87963 12.0171 7.19414 12.3991 7.58243 12.3991C7.97071 12.3991 8.28522 12.0186 8.28522 11.5465C8.28522 11.0767 7.97071 10.6938 7.58243 10.6938Z" fill="black"/>
<path d="M10.0356 21.186C8.71548 21.186 7.64148 20.1113 7.64148 18.7911C7.64148 17.4709 8.71548 16.3969 10.0356 16.3969C11.3566 16.3969 12.4306 17.4709 12.4306 18.7911C12.4306 20.1113 11.3566 21.186 10.0356 21.186ZM10.0356 16.6136C8.83507 16.6136 7.85737 17.5905 7.85737 18.7919C7.85737 19.9932 8.83429 20.9709 10.0356 20.9709C11.2378 20.9709 12.2147 19.9932 12.2147 18.7919C12.2147 17.5905 11.2378 16.6136 10.0356 16.6136Z" fill="black"/>
<path d="M9.29798 20.3675L9.21023 20.5438L9.11316 20.4949L9.20246 20.3178C9.23275 20.3357 9.26614 20.352 9.29798 20.3675Z" fill="black"/>
<path d="M8.28599 18.7546C8.28599 18.7919 8.2891 18.8276 8.29143 18.8641H8.0437V18.6475H8.29143C8.28987 18.6832 8.28599 18.7181 8.28599 18.7546Z" fill="black"/>
<path d="M10.1886 20.543V20.7915H9.97119V20.543C10.0077 20.5453 10.0442 20.5484 10.0807 20.5484C10.1172 20.5484 10.1529 20.5453 10.1886 20.543Z" fill="black"/>
<path d="M11.9204 19.5754L11.8722 19.6725L11.6765 19.5723C11.6928 19.5405 11.7091 19.5079 11.7239 19.4745L11.9204 19.5754Z" fill="black"/>
<path d="M11.0297 20.2743C11.0607 20.2556 11.091 20.2347 11.119 20.2153L11.2285 20.3838L11.1368 20.442L11.0297 20.2743Z" fill="black"/>
<path d="M8.37305 19.8138L8.55088 19.6911C8.5703 19.7214 8.58893 19.7516 8.6099 19.7819L8.43517 19.9031L8.37305 19.8138Z" fill="black"/>
<path d="M10.8193 17.1222L10.9514 16.8589L11.0484 16.9086L10.918 17.168C10.8846 17.1517 10.8512 17.1369 10.8193 17.1222Z" fill="black"/>
<path d="M11.4972 17.6581L11.7263 17.4989L11.7869 17.5882L11.5624 17.7443C11.5415 17.7148 11.5189 17.686 11.4972 17.6581Z" fill="black"/>
<path d="M11.8684 18.8641C11.8707 18.8276 11.8746 18.7919 11.8746 18.7546C11.8746 18.7181 11.8707 18.6824 11.8684 18.6467H12.1169V18.8641H11.8684Z" fill="black"/>
<path d="M9.97119 16.9678V16.7193H10.1886V16.9678C10.1529 16.9654 10.1164 16.9616 10.0799 16.9616C10.0434 16.9616 10.0077 16.9654 9.97119 16.9678Z" fill="black"/>
<path d="M8.93054 17.0182L9.02218 16.9599L9.1806 17.2053C9.14876 17.2216 9.11769 17.241 9.08818 17.2612L8.93054 17.0182Z" fill="black"/>
<path d="M8.23938 17.8266L8.2883 17.7295L8.53137 17.853C8.51351 17.8841 8.49487 17.9159 8.47934 17.9478L8.23938 17.8266Z" fill="black"/>
<path d="M10.1568 20.3551H10.0039V18.8625V18.7911V18.6956L9.10071 17.7047L9.12478 17.6829L10.0046 18.649H11.1687V18.8625H10.1568V20.3551Z" fill="black"/>
</svg>
