<svg width="17" height="18" viewBox="0 0 17 18" fill="none" xmlns="http://www.w3.org/2000/svg">
<path d="M8.00002 3.36479V6.36479C7.99895 7.02747 7.73524 7.66268 7.26662 8.13129C6.798 8.59991 6.16279 8.8636 5.50011 8.8647H2.50011C1.8373 8.86363 1.20209 8.59992 0.733474 8.13129C0.264857 7.66268 0.00116568 7.02747 6.85338e-05 6.36479V3.36479C0.00113996 2.70198 0.264847 2.06677 0.733474 1.59815C1.2021 1.12953 1.8373 0.865843 2.50011 0.864746H5.50011C6.16279 0.865818 6.798 1.12952 7.26662 1.59815C7.73523 2.06677 7.99893 2.70198 8.00002 3.36479V3.36479ZM14.3 0.864746H11.3C10.6373 0.865818 10.0021 1.12952 9.53352 1.59815C9.0649 2.06677 8.80121 2.70198 8.80011 3.36479V6.36479C8.80119 7.02747 9.06489 7.66268 9.53352 8.13129C10.0021 8.59991 10.6373 8.8636 11.3 8.8647H14.3C14.9628 8.86363 15.598 8.59992 16.0667 8.13129C16.5353 7.66268 16.799 7.02747 16.8001 6.36479V3.36479C16.799 2.70198 16.5353 2.06677 16.0667 1.59815C15.598 1.12953 14.9628 0.865843 14.3 0.864746V0.864746ZM5.49991 9.66486H2.50005C1.83723 9.66593 1.20202 9.92964 0.733406 10.3983C0.264789 10.8669 0.00109714 11.5021 0 12.1648V15.1648C0.00107143 15.8276 0.264778 16.4628 0.733406 16.9314C1.20203 17.4 1.83723 17.6637 2.50005 17.6648H5.50005C6.16272 17.6637 6.79793 17.4 7.26655 16.9314C7.73517 16.4628 7.99886 15.8276 7.99995 15.1648V12.1648C7.99888 11.5021 7.73518 10.8669 7.26655 10.3983C6.79793 9.92965 6.16272 9.66596 5.50005 9.66486H5.49991ZM14.3 9.66486H11.3C10.6373 9.66593 10.0021 9.92964 9.53352 10.3983C9.0649 10.8669 8.80121 11.5021 8.80011 12.1648V15.1648C8.80119 15.8276 9.06489 16.4628 9.53352 16.9314C10.0021 17.4 10.6373 17.6637 11.3 17.6648H14.3C14.9628 17.6637 15.598 17.4 16.0667 16.9314C16.5353 16.4628 16.799 15.8276 16.8001 15.1648V12.1648C16.799 11.5021 16.5353 10.8669 16.0667 10.3983C15.598 9.92965 14.9628 9.66596 14.3 9.66486V9.66486Z" fill="url(#paint0_linear_256_4164)"/>
<defs>
<linearGradient id="paint0_linear_256_4164" x1="0" y1="0.864746" x2="16.8001" y2="17.6648" gradientUnits="userSpaceOnUse">
<stop offset="0.9999"/>
<stop offset="1" stop-color="#384295"/>
</linearGradient>
</defs>
</svg>
