<svg width="15" height="18" viewBox="0 0 15 18" fill="none" xmlns="http://www.w3.org/2000/svg">
<path d="M10.5714 13.5505H14.8L10.5714 17.779V13.5505ZM9.51429 13.0219V17.779H1.05714C0.473358 17.779 0 17.3062 0 16.7219V1.92189C0 1.33762 0.473358 0.864746 1.05714 0.864746H13.7429C14.3272 0.864746 14.8 1.33762 14.8 1.92189V12.4933H10.0429C9.75073 12.4933 9.51429 12.7298 9.51429 13.0219ZM2.11429 4.56475C2.11429 4.85688 2.35073 5.09332 2.64286 5.09332H12.1571C12.4493 5.09332 12.6857 4.85688 12.6857 4.56475C12.6857 4.27262 12.4493 4.03617 12.1571 4.03617H2.64286C2.35073 4.03617 2.11429 4.27262 2.11429 4.56475ZM2.11429 7.73617C2.11429 8.02831 2.35073 8.26475 2.64286 8.26475H12.1571C12.4493 8.26475 12.6857 8.02831 12.6857 7.73617C12.6857 7.44404 12.4493 7.2076 12.1571 7.2076H2.64286C2.35073 7.2076 2.11429 7.44404 2.11429 7.73617ZM12.1571 11.4362C12.4493 11.4362 12.6857 11.1997 12.6857 10.9076C12.6857 10.6155 12.4493 10.379 12.1571 10.379H2.64286C2.35073 10.379 2.11429 10.6155 2.11429 10.9076C2.11429 11.1997 2.35073 11.4362 2.64286 11.4362H12.1571Z" fill="#272525"/>
</svg>
