<svg width="19" height="14" viewBox="0 0 19 14" fill="none" xmlns="http://www.w3.org/2000/svg">
<path d="M18.9007 12.244V13.924H3.92917e-06V12.1461C-0.000933579 11.7706 0.16594 11.4143 0.455078 11.1746C1.47494 10.3516 2.57195 9.6289 3.73056 9.01659C3.80543 9.19137 4.5312 10.8599 4.99392 11.5644V11.5643C5.00035 11.5776 5.01375 11.586 5.02848 11.586C5.04321 11.586 5.0566 11.5776 5.06303 11.5643C5.15705 11.2821 5.51999 10.3028 6.07096 10.3701H6.0711C6.08837 10.3753 6.10686 10.367 6.11449 10.3506C6.12212 10.3344 6.11676 10.3149 6.10176 10.3048C5.68512 9.97269 4.62909 9.11824 4.22784 8.64212V7.49207C4.04918 7.18832 3.92744 6.85456 3.86877 6.50704C3.73056 6.49552 3.55002 6.30347 3.35421 5.61428C3.10269 4.72727 3.33881 4.55063 3.56729 4.55248C3.44635 4.03405 3.13913 2.23312 4.47936 1.4152C4.31824 1.27913 4.22489 1.07904 4.22396 0.868103C4.22396 0.868103 5.75999 1.04087 6.49151 0.889264C7.22303 0.737522 8.02754 1.31742 8.15235 1.87618C8.15235 1.87618 9.6518 1.87618 9.07017 4.55461C9.30441 4.54497 9.55981 4.70636 9.30053 5.61641C9.10848 6.30572 8.91657 6.49968 8.78597 6.50917V6.50904C8.72758 6.85659 8.60584 7.19033 8.4269 7.49397V8.63451C8.02363 9.11064 6.96962 9.96696 6.55109 10.2972C6.53609 10.3073 6.5306 10.3267 6.53837 10.343C6.546 10.3594 6.56449 10.3677 6.58176 10.3625C7.13273 10.2952 7.49568 11.2725 7.58969 11.5567C7.59612 11.57 7.60965 11.5784 7.62425 11.5784C7.63898 11.5784 7.6525 11.57 7.65893 11.5567C8.12165 10.8521 8.84741 9.18361 8.92229 9.00886C9.70202 9.42416 10.4555 9.88702 11.1782 10.3952C11.4217 10.314 11.659 10.216 11.8887 10.1013L11.9309 10.0764C12.0507 9.99887 12.1229 9.86588 12.1229 9.7231V9.00698C10.2279 9.02425 9.66924 8.2121 9.66924 8.2121C9.66924 8.2121 10.7522 8.19482 10.685 5.33209C10.6176 2.46937 11.9251 2.00665 12.4167 1.82809C13.847 1.28473 14.5651 2.14872 14.5651 2.14872C16.224 1.9951 16.6772 3.80757 16.4851 5.86975C16.2931 7.93186 17.4145 8.25436 17.4145 8.25436C16.6369 9.04924 14.9953 8.99928 14.9953 8.99928V9.73855H14.9952C14.9952 9.88132 15.0673 10.0143 15.1872 10.0919L15.2372 10.1225C15.8132 10.424 16.9959 10.737 17.019 10.7485C17.406 10.8535 17.7822 10.9956 18.1421 11.1728C18.564 11.3738 18.8511 11.7795 18.9005 12.2441L18.9007 12.244Z" fill="#272525"/>
</svg>
