<svg width="17" height="18" viewBox="0 0 17 18" fill="none" xmlns="http://www.w3.org/2000/svg">
<path d="M9.89993 7.46479C9.89993 7.29913 9.7656 7.16479 9.59993 7.16479C9.43426 7.16479 9.29993 7.29913 9.29993 7.46479V7.76479H9.89993V7.46479Z" fill="#272525"/>
<path d="M14.3999 8.36475H10.4999V9.86475C10.4999 10.1863 10.3284 10.4834 10.0499 10.6442C9.77149 10.8049 9.42836 10.8049 9.14993 10.6442C8.87149 10.4834 8.69993 10.1863 8.69993 9.86475V9.26475C8.69993 9.09908 8.83426 8.96475 8.99993 8.96475C9.1656 8.96475 9.29993 9.09908 9.29993 9.26475V9.86475C9.29993 10.0304 9.43426 10.1647 9.59993 10.1647C9.7656 10.1647 9.89993 10.0304 9.89993 9.86475V8.36475H7.79993V17.0647H16.1999V8.36475H14.3999ZM8.39993 13.7647C8.39993 13.5991 8.53426 13.4647 8.69993 13.4647H13.1999C13.3656 13.4647 13.4999 13.5991 13.4999 13.7647C13.4999 13.9304 13.3656 14.0647 13.1999 14.0647H8.69993C8.53426 14.0647 8.39993 13.9304 8.39993 13.7647ZM11.6999 15.8647H8.69993C8.53426 15.8647 8.39993 15.7304 8.39993 15.5647C8.39993 15.3991 8.53426 15.2647 8.69993 15.2647H11.6999C11.8656 15.2647 11.9999 15.3991 11.9999 15.5647C11.9999 15.7304 11.8656 15.8647 11.6999 15.8647ZM15.2999 14.0647H14.3999C14.2343 14.0647 14.0999 13.9304 14.0999 13.7647C14.0999 13.5991 14.2343 13.4647 14.3999 13.4647H15.2999C15.4656 13.4647 15.5999 13.5991 15.5999 13.7647C15.5999 13.9304 15.4656 14.0647 15.2999 14.0647ZM15.2999 12.2647H8.69993C8.53426 12.2647 8.39993 12.1304 8.39993 11.9647C8.39993 11.7991 8.53426 11.6647 8.69993 11.6647H15.2999C15.4656 11.6647 15.5999 11.7991 15.5999 11.9647C15.5999 12.1304 15.4656 12.2647 15.2999 12.2647ZM15.2999 10.4647H11.3999C11.2343 10.4647 11.0999 10.3304 11.0999 10.1647C11.0999 9.99908 11.2343 9.86475 11.3999 9.86475H15.2999C15.4656 9.86475 15.5999 9.99908 15.5999 10.1647C15.5999 10.3304 15.4656 10.4647 15.2999 10.4647Z" fill="#272525"/>
<path d="M14.1 1.46475H12V1.16475C12 0.999078 11.8657 0.864746 11.7 0.864746C11.5343 0.864746 11.4 0.999078 11.4 1.16475V1.46475H9V1.16475C9 0.999078 8.86567 0.864746 8.7 0.864746C8.53433 0.864746 8.4 0.999078 8.4 1.16475V1.46475H6V1.16475C6 0.999078 5.86567 0.864746 5.7 0.864746C5.53433 0.864746 5.4 0.999078 5.4 1.16475V1.46475H3V1.16475C3 0.999078 2.86567 0.864746 2.7 0.864746C2.53433 0.864746 2.4 0.999078 2.4 1.16475V1.46475H0.3C0.134331 1.46475 0 1.59908 0 1.76475V14.6647C0 14.7443 0.0316073 14.8206 0.0878571 14.8769C0.144107 14.9331 0.220447 14.9647 0.3 14.9647H7.2V8.06475C7.2 7.89908 7.33433 7.76475 7.5 7.76475H8.7V7.46475C8.7 7.14318 8.87156 6.84613 9.15 6.6853C9.42844 6.52458 9.77157 6.52458 10.05 6.6853C10.3284 6.84614 10.5 7.14318 10.5 7.46475V7.76475H14.4V1.76475C14.4 1.68519 14.3684 1.60885 14.3121 1.5526C14.2559 1.49635 14.1796 1.46475 14.1 1.46475ZM3.3 11.0647H2.1C1.93433 11.0647 1.8 10.9304 1.8 10.7647C1.8 10.5991 1.93433 10.4647 2.1 10.4647H3.3C3.46567 10.4647 3.6 10.5991 3.6 10.7647C3.6 10.9304 3.46567 11.0647 3.3 11.0647ZM3.3 9.26475H2.1C1.93433 9.26475 1.8 9.13041 1.8 8.96475C1.8 8.79908 1.93433 8.66475 2.1 8.66475H3.3C3.46567 8.66475 3.6 8.79908 3.6 8.96475C3.6 9.13041 3.46567 9.26475 3.3 9.26475ZM3.3 7.46475H2.1C1.93433 7.46475 1.8 7.33042 1.8 7.16475C1.8 6.99908 1.93433 6.86475 2.1 6.86475H3.3C3.46567 6.86475 3.6 6.99908 3.6 7.16475C3.6 7.33042 3.46567 7.46475 3.3 7.46475ZM3.3 5.66475H2.1C1.93433 5.66475 1.8 5.53042 1.8 5.36475C1.8 5.19908 1.93433 5.06475 2.1 5.06475H3.3C3.46567 5.06475 3.6 5.19908 3.6 5.36475C3.6 5.53042 3.46567 5.66475 3.3 5.66475ZM6.3 11.0647H5.1C4.93433 11.0647 4.8 10.9304 4.8 10.7647C4.8 10.5991 4.93433 10.4647 5.1 10.4647H6.3C6.46567 10.4647 6.6 10.5991 6.6 10.7647C6.6 10.9304 6.46567 11.0647 6.3 11.0647ZM6.3 9.26475H5.1C4.93433 9.26475 4.8 9.13041 4.8 8.96475C4.8 8.79908 4.93433 8.66475 5.1 8.66475H6.3C6.46567 8.66475 6.6 8.79908 6.6 8.96475C6.6 9.13041 6.46567 9.26475 6.3 9.26475ZM6.3 7.46475H5.1C4.93433 7.46475 4.8 7.33042 4.8 7.16475C4.8 6.99908 4.93433 6.86475 5.1 6.86475H6.3C6.46567 6.86475 6.6 6.99908 6.6 7.16475C6.6 7.33042 6.46567 7.46475 6.3 7.46475ZM6.3 5.66475H5.1C4.93433 5.66475 4.8 5.53042 4.8 5.36475C4.8 5.19908 4.93433 5.06475 5.1 5.06475H6.3C6.46567 5.06475 6.6 5.19908 6.6 5.36475C6.6 5.53042 6.46567 5.66475 6.3 5.66475ZM9.3 5.66475H8.1C7.93433 5.66475 7.8 5.53042 7.8 5.36475C7.8 5.19908 7.93433 5.06475 8.1 5.06475H9.3C9.46567 5.06475 9.6 5.19908 9.6 5.36475C9.6 5.53042 9.46567 5.66475 9.3 5.66475ZM12.3 5.66475H11.1C10.9343 5.66475 10.8 5.53042 10.8 5.36475C10.8 5.19908 10.9343 5.06475 11.1 5.06475H12.3C12.4657 5.06475 12.6 5.19908 12.6 5.36475C12.6 5.53042 12.4657 5.66475 12.3 5.66475ZM13.8 3.26475H0.6V2.06475H2.4V2.36475C2.4 2.53041 2.53433 2.66475 2.7 2.66475C2.86567 2.66475 3 2.53041 3 2.36475V2.06475H5.4V2.36475C5.4 2.53041 5.53433 2.66475 5.7 2.66475C5.86567 2.66475 6 2.53041 6 2.36475V2.06475H8.4V2.36475C8.4 2.53041 8.53433 2.66475 8.7 2.66475C8.86567 2.66475 9 2.53041 9 2.36475V2.06475H11.4V2.36475C11.4 2.53041 11.5343 2.66475 11.7 2.66475C11.8657 2.66475 12 2.53041 12 2.36475V2.06475H13.8V3.26475Z" fill="#272525"/>
</svg>
