<svg width="16" height="20" viewBox="0 0 16 20" fill="none" xmlns="http://www.w3.org/2000/svg">
<path d="M7.71989 19.0297C8.20133 19.0278 8.66276 18.8358 9.00307 18.4953C9.34356 18.1548 9.53571 17.6936 9.5374 17.2122H5.90235C5.90404 17.6936 6.09621 18.1549 6.43668 18.4953C6.77701 18.8358 7.23842 19.0278 7.71985 19.0297H7.71989ZM14.2665 14.2212V14.2211C13.8556 13.8122 13.624 13.2568 13.6225 12.6771V8.58313C13.6225 7.34796 13.2346 6.144 12.5136 5.14115C11.7925 4.13814 10.7746 3.38717 9.60369 2.99388C9.45291 2.94511 9.32151 2.84987 9.22797 2.72202C9.13442 2.59401 9.0838 2.43984 9.08319 2.28135C9.08826 1.92009 8.95318 1.57083 8.70654 1.30697C8.45975 1.04295 8.12049 0.884618 7.7597 0.865397C7.39151 0.854012 7.03457 0.992332 6.77024 1.24881C6.50576 1.50529 6.35667 1.85795 6.35682 2.22626V2.28134C6.35621 2.43981 6.30559 2.59398 6.21204 2.72201C6.1185 2.84987 5.9871 2.94511 5.83632 2.99388C4.66544 3.38714 3.64754 4.13813 2.92639 5.14114C2.2054 6.14399 1.81755 7.34792 1.81755 8.58312V12.6704C1.81601 13.2501 1.58445 13.8055 1.17348 14.2143L0.641902 14.7459C0.233569 15.1564 0.00307225 15.7109 0 16.2899H15.44C15.4369 15.7109 15.2064 15.1564 14.7981 14.7459L14.2665 14.2212Z" fill="#272525"/>
</svg>
