<svg width="15" height="20" viewBox="0 0 15 20" fill="none" xmlns="http://www.w3.org/2000/svg">
<path fill-rule="evenodd" clip-rule="evenodd" d="M14.0188 14.4526L14.0194 1.72535L5.44493 1.76339V2.91015H12.8343V14.4527L14.0188 14.4526ZM11.9735 16.4979L11.9741 3.77068L3.39961 3.80872V4.95547H10.789V16.498L11.9735 16.4979ZM9.15119 11.7381C9.15119 9.66335 7.46929 7.98148 5.39457 7.98148C3.31981 7.98148 1.63795 9.66349 1.63795 11.7381C1.63795 13.8126 3.3197 15.4947 5.39457 15.4947C7.46918 15.4947 9.15119 13.8127 9.15119 11.7381ZM14.88 0.864746V15.351H12.8347V17.3964H10.7894V17.9653L9.36957 19.385L8.37109 18.3867L7.35853 19.3826L6.37111 18.3951L5.3669 19.3826L4.37962 18.3951L3.37526 19.3826L2.38196 18.3891L1.3862 19.385L0 17.9991V4.9555H2.50106V2.91018H4.54653V0.864856L14.88 0.864746ZM6.6796 11.9781C6.96109 12.5241 6.84582 13.3355 6.32965 13.724C6.16816 13.8454 5.97395 13.9218 5.77143 13.9621L5.83903 14.485H4.9258L4.99542 13.9463C4.80207 13.8982 4.62035 13.8148 4.46906 13.6911C4.17925 13.4545 4.02909 13.1011 3.96048 12.7409L4.65566 12.584C4.71566 12.9569 4.9927 13.2516 5.40338 13.2516C5.63492 13.2516 5.80932 13.1927 5.92673 13.075C6.07673 12.9247 6.15539 12.6975 6.07443 12.4983C5.96821 12.2372 5.64409 12.1614 5.3919 12.0866C5.10711 12.0023 4.81112 11.9273 4.56653 11.7583C3.83703 11.2551 3.88815 10.038 4.73289 9.66964C4.81916 9.63189 4.91017 9.60663 5.00276 9.58711L4.92581 8.99111H5.83904L5.76081 9.59729C5.91268 9.63245 6.05924 9.68628 6.18913 9.76838C6.46373 9.94207 6.61246 10.2195 6.67775 10.5165L5.94855 10.6609C5.91338 10.5574 5.85769 10.461 5.77099 10.3912C5.66965 10.3101 5.53501 10.2728 5.40239 10.2686C5.16511 10.2609 4.85504 10.3224 4.7645 10.5616C4.7144 10.6938 4.74828 10.8475 4.84933 10.9496C4.9402 11.0412 5.16039 11.1363 5.51019 11.2355C5.85985 11.3347 6.11868 11.4375 6.28631 11.5434C6.45383 11.6495 6.58488 11.7943 6.67962 11.9781L6.6796 11.9781Z" fill="#272525"/>
</svg>
