<svg width="16" height="20" viewBox="0 0 16 20" fill="none" xmlns="http://www.w3.org/2000/svg">
<path d="M0 5.74155H4.8768L4.87693 0.864746H0.000133929L0 5.74155ZM1.53603 2.40081H3.34087V4.20565H1.53603V2.40081Z" fill="#272525"/>
<path d="M6.73926 0.864746H15.9937V2.40078H6.73926V0.864746Z" fill="#272525"/>
<path d="M6.73926 4.20557H14.1313V5.7416H6.73926V4.20557Z" fill="#272525"/>
<path d="M0 12.4232H4.8768L4.87693 7.54639H0.000133929L0 12.4232ZM1.53603 9.08235H3.34087V10.8872H1.53603V9.08235Z" fill="#272525"/>
<path d="M6.73926 7.54639H15.9937V9.08242H6.73926V7.54639Z" fill="#272525"/>
<path d="M6.73926 10.8872H14.1313V12.4232H6.73926V10.8872Z" fill="#272525"/>
<path d="M0 19.1047H4.8768L4.87693 14.2279H0.000133929L0 19.1047ZM1.53603 15.7639H3.34087V17.5687H1.53603V15.7639Z" fill="#272525"/>
<path d="M6.73926 14.2279H15.9937V15.7639H6.73926V14.2279Z" fill="#272525"/>
<path d="M6.73926 17.5687H14.1313V19.1048H6.73926V17.5687Z" fill="#272525"/>
</svg>
